<?xml version="1.0" encoding="utf-8"?>
<!-- Svg Vector Icons : http://www.onlinewebfonts.com/icon -->
<!DOCTYPE svg PUBLIC "-//W3C//DTD SVG 1.1//EN" "http://www.w3.org/Graphics/SVG/1.1/DTD/svg11.dtd">
<svg version="1.1" xmlns="http://www.w3.org/2000/svg" xmlns:xlink="http://www.w3.org/1999/xlink" x="0px" y="0px" viewBox="0 0 1000 1000" enable-background="new 0 0 1000 1000" xml:space="preserve">
<metadata> Svg Vector Icons : http://www.onlinewebfonts.com/icon </metadata>
<g><g transform="translate(0.000000,512.000000) scale(0.100000,-0.100000)"><path d="M7948.4,5004c-613-53.6-1392.7-319.9-2182-745.2l-321.8-174.3H5276c-339.1-1.9-791.2-84.3-1206.9-220.3c-1310.3-429.1-2371.6-1492.3-2804.6-2804.6c-137.9-415.7-229.9-931-229.9-1281.6c0-93.9-13.4-130.3-124.5-329.5c-1162.8-2097.7-1067-3716.4,243.3-4080.4c423.4-116.8,1107.3-67.1,1668.5,124.5c107.3,36.4,172.4,63.2,143.7,57.5c-632.2-116.8-969.3-116.8-1304.6,0c-523,182-802.7,628.3-804.6,1283.5c0,285.4,23,461.7,103.5,781.6c49.8,197.3,205,662.8,247.1,739.4c9.6,17.3,32.6-28.7,67.1-134.1c251-752.9,772-1494.2,1423.3-2024.9c291.2-239.5,752.9-507.7,1141.8-662.8c764.3-308.4,1691.5-388.9,2521-220.3c819.9,166.7,1586.2,574.7,2191.5,1164.7c362.1,354.4,645.6,735.6,860.1,1155.2c99.6,195.4,262.5,582.4,262.5,626.4c0,15.3-385,21.1-1298.8,21.1H7076.7l-113-116.9c-618.8-628.3-1576.6-800.8-2381.2-429.1c-415.7,193.5-793.1,557.5-1000,967.4c-70.9,141.7-153.3,350.6-153.3,392.7c0,24.9,392.7,28.7,3216.4,28.7c2938.7,0,3216.4,1.9,3227.9,30.6c5.7,17.2,17.2,170.5,23,341C9961.7,1151.6,9086.3,2709,7630.4,3527c-210.7,118.8-492.3,245.2-712.6,319.9l-162.8,53.6l76.6,34.5c139.9,63.2,611.1,210.7,821.8,256.7c266.3,59.4,706.9,82.4,923.4,46c310.3-49.8,588.1-191.6,762.4-388.9c105.4-116.9,222.2-352.5,270.1-540.2c51.7-195.4,47.9-693.5-7.6-957.8c-21.1-105.4-44.1-216.5-49.8-249c-26.8-128.4,70.9,170.5,132.2,402.3c95.8,373.6,130.3,655.2,118.8,986.6c-15.3,503.8-132.2,810.3-415.7,1093.9c-174.3,174.3-321.8,264.4-555.5,339.1C8588.2,5002.1,8262.5,5030.8,7948.4,5004z M5981,1711c404.2-103.4,739.4-300.8,1024.9-601.5c118.8-126.4,293.1-364,323.7-440.6c11.5-30.7-122.6-32.6-1858.2-32.6c-1049.8,0-1869.7,7.7-1869.7,17.2c0,44.1,208.8,327.6,348.7,473.2c354.4,367.8,839.1,599.6,1337.1,636C5519.3,1779.9,5793.2,1758.9,5981,1711z"/></g></g>
</svg>