<?xml version="1.0" encoding="utf-8"?>
<!-- Svg Vector Icons : http://www.onlinewebfonts.com/icon -->
<!DOCTYPE svg PUBLIC "-//W3C//DTD SVG 1.1//EN" "http://www.w3.org/Graphics/SVG/1.1/DTD/svg11.dtd">
<svg version="1.1" xmlns="http://www.w3.org/2000/svg" xmlns:xlink="http://www.w3.org/1999/xlink" x="0px" y="0px" viewBox="0 0 1000 1000" enable-background="new 0 0 1000 1000" xml:space="preserve">
<metadata> Svg Vector Icons : http://www.onlinewebfonts.com/icon </metadata>
<g><g transform="translate(0.000000,511.000000) scale(0.100000,-0.100000)"><path d="M178.2,4449.3l-70.9-65.1L101.6,987c-3.8-3378-3.8-3395.2,34.5-3458.4c74.7-122.6,7.7-118.7,1780.9-118.7h1612.4l-7.7-340.9c-5.7-325.5-7.7-342.8-59.4-446.2c-122.6-250.9-316-386.8-614.7-430.9c-153.2-23-180-32.6-226-84.3c-101.5-111.1-93.8-247,15.3-342.8l67-59.4h2296h2296.1l67,59.4c109.1,95.8,116.8,231.7,15.3,342.8c-46,51.7-72.8,61.3-226,84.3c-298.7,44-492.1,180-614.7,430.9c-51.7,103.4-53.6,120.6-59.4,448.1l-7.7,339H8087c1530,0,1618.1,1.9,1681.3,34.5c36.4,19.2,82.3,65.1,101.5,101.5c30.7,61.3,32.6,256.6,28.7,3450.8l-5.7,3387.6l-70.8,65.1l-72.8,65.1H5000.1H251L178.2,4449.3z M9404.5,1460v-2575.6H5000.1H595.7V1460v2575.6h4404.4h4404.4V1460z M9404.5-1852.8v-239.4H5000.1H595.7v239.4v239.4h4404.4h4404.4V-1852.8z M5976.7-2877.3c0-409.8,63.2-674.1,210.6-882.8l40.2-55.5H5000.1H3772.6l40.2,55.5c53.6,76.6,132.1,250.9,166.6,371.5c19.2,63.2,32.5,226,38.3,450l9.6,348.5H5002h974.7V-2877.3z"/><path d="M1963,3767.6c-21.1-7.7-63.2-42.1-90-76.6l-51.7-61.3V1463.9c1.9-1727.3,5.7-2177.3,26.8-2211.8c13.4-24.9,49.8-61.3,80.4-82.3c53.6-34.5,122.6-36.4,3067.8-36.4c2755.6,0,3018,1.9,3067.8,30.6c122.6,72.8,114.9-82.3,114.9,2303.7v2165.8l-65.1,72.8l-65.1,70.9L5025,3781C3362.8,3782.9,1985.9,3777.1,1963,3767.6z M7700.2,2925v-363.8H5000.1H2300V2925v363.8h2700.1h2700.1V2925z M4019.6,843.4l-5.7-1221.7h-852.2h-852.2l-5.7,1221.7l-3.8,1219.8h861.7h861.7L4019.6,843.4z M7696.4,843.4l-5.7-1221.7H6101.2H4511.8L4506,843.4l-3.8,1219.8h1599h1599L7696.4,843.4z"/><path d="M2661.9,3061c-114.9-116.8-51.7-298.7,111.1-321.7c74.7-9.6,88.1-3.8,151.3,59.4c63.2,63.2,68.9,76.6,59.4,151.3C2960.7,3112.7,2778.7,3175.8,2661.9,3061z"/><path d="M3389.6,3061c-134-136-9.6-356.2,181.9-319.8c220.2,42.1,180,375.3-46,375.3C3462.4,3116.5,3433.7,3105,3389.6,3061z"/><path d="M4132.6,3066.7c-91.9-91.9-78.5-227.9,28.7-302.6c153.2-109.2,361.9,84.3,275.8,252.8c-38.3,74.7-84.3,99.6-180,99.6C4201.5,3116.5,4169,3103.1,4132.6,3066.7z"/><path d="M2690.6,1797.1c-130.2-59.4-180-218.3-103.4-340.9c68.9-113,105.3-120.6,574.5-120.6s505.5,7.7,574.5,120.6c76.6,122.6,26.8,281.5-103.4,340.9c-68.9,30.6-130.2,36.4-471.1,36.4S2759.6,1827.7,2690.6,1797.1z"/><path d="M2683,1061.7c-24.9-13.4-67-53.6-91.9-90c-67-99.6-49.8-216.4,42.1-300.6l68.9-63.2h459.6h459.6l68.9,63.2c91.9,84.3,109.1,201.1,42.1,300.6c-74.7,109.2-95.7,114.9-570.7,114.9C2855.3,1086.6,2717.5,1079,2683,1061.7z"/><path d="M2688.7,330.2c-128.3-55.5-176.2-226-101.5-350.4c67-111.1,122.6-120.6,599.4-114.9c407.9,5.7,427,7.7,486.4,49.8c126.4,90,126.4,300.7,0,394.5c-51.7,38.3-82.3,40.2-488.3,44C2841.9,357,2736.6,353.2,2688.7,330.2z"/><path d="M4904.3,1800.9c-36.4-19.1-86.2-63.2-109.2-99.6c-42.1-63.2-44-80.4-44-474.9c0-446.2,9.6-501.7,105.3-576.4c51.7-40.2,70.9-42.1,501.7-42.1c647.2,0,618.5-26.8,618.5,603.2c0,633.9,23,610.9-584.1,618.5C5019.2,1833.5,4963.7,1831.5,4904.3,1800.9z M5494.2,1216.8l-5.7-120.6l-118.7-5.7l-120.6-5.8v126.4v124.5h124.5h126.4L5494.2,1216.8z"/><path d="M6367.4,1797.1c-136-61.3-145.6-103.4-137.9-616.6l5.7-442.4l70.9-65.1l72.8-65.1h459.6H7298l72.8,65.1l70.9,65.1l5.7,442.4c9.6,660.7,17.2,653-609,653C6497.6,1833.5,6436.3,1827.7,6367.4,1797.1z M6953.4,1211.1v-124.5h-114.9h-114.9v124.5v124.5h114.9h114.9V1211.1z"/><path d="M4887.1,324.5c-72.8-38.3-136-139.8-136-214.5c0-74.7,63.2-176.2,136-214.5c61.3-32.6,128.3-34.5,1233.2-30.6l1168.1,5.7l61.3,44c126.4,90,126.4,300.7,0,394.5c-53.6,40.2-70.9,40.2-1225.6,46C5015.4,358.9,4948.4,357,4887.1,324.5z"/></g></g>
</svg>